<?xml version="1.0" encoding="UTF-8"?>
<svg id="Layer_1" xmlns="http://www.w3.org/2000/svg" version="1.1" xmlns:xlink="http://www.w3.org/1999/xlink" viewBox="0 0 1080 1080">
  <!-- Generator: Adobe Illustrator 30.5.1, SVG Export Plug-In . SVG Version: 2.1.4 Build 3)  -->
  <defs>
    <style>
      .st0 {
        fill: #fff;
      }

      .st1 {
        fill: url(#linear-gradient);
      }
    </style>
    <linearGradient id="linear-gradient" x1="225.41" y1="174.47" x2="855.41" y2="906.47" gradientUnits="userSpaceOnUse">
      <stop offset="0" stop-color="#334051"/>
      <stop offset="1" stop-color="#1d2937"/>
    </linearGradient>
  </defs>
  <circle class="st1" cx="540" cy="540" r="540"/>
  <path class="st0" d="M881.15,393.92c-18.65-44.09-45.34-83.69-79.34-117.68s-73.59-60.69-117.68-79.34c-14.44-6.11-29.17-11.26-44.13-15.46v68.19c119.35,41.5,205.26,155.11,205.26,288.42,0,168.32-136.94,305.26-305.26,305.26s-305.26-136.94-305.26-305.26c0-133.31,85.9-246.92,205.26-288.42v-68.19c-14.96,4.2-29.69,9.35-44.13,15.46-44.09,18.65-83.69,45.34-117.68,79.34s-60.69,73.59-79.34,117.68c-19.32,45.67-29.11,94.16-29.11,144.13s9.79,98.46,29.11,144.13c18.65,44.09,45.34,83.69,79.34,117.68,33.99,33.99,73.59,60.69,117.68,79.33,45.67,19.32,94.16,29.11,144.13,29.11s98.46-9.79,144.13-29.11c44.09-18.65,83.69-45.34,117.68-79.33,33.99-33.99,60.69-73.59,79.34-117.68,19.32-45.67,29.11-94.16,29.11-144.13s-9.79-98.46-29.11-144.13Z"/>
  <path class="st0" d="M540,495.33c-17.95,0-32.5-14.55-32.5-32.5V157c0-17.95,14.55-32.5,32.5-32.5s32.5,14.55,32.5,32.5v305.83c0,17.95-14.55,32.5-32.5,32.5Z"/>
</svg>